# xmcd
#
# Track frame offsets:
#	150
#	18145
#	30076
#	50046
#	65646
#	83380
#	98568
#	117558
#	130450
#	148647
#	173655
#	188671
#	204763
#	224357
#	242471
#	284338
#
# Disc length: 3975 seconds
#
# Revision: 2
# Processed by: cddbd v1.5.2PL0 Copyright (c) Steve Scherf et al.
# Submitted via: dBpowerAMP V4.0
#
DISCID=d30f8510
DTITLE=Beccy Cole - Feel This Free Bonus Edition
DYEAR=2006
DGENRE=Country
TTITLE0=Rainbows, Dreams And Butterflies
TTITLE1=A Better Woman
TTITLE2=Just Because She Always Has
TTITLE3=So Good For So Long
TTITLE4=To Feel This Free
TTITLE5=Can't Have That
TTITLE6=The Clown Song
TTITLE7=Leave Love Out Of This
TTITLE8=His Hometown
TTITLE9=Jesse
TTITLE10=Some Lessons
TTITLE11=Someone Else's Shoes
TTITLE12=Girls Out There
TTITLE13=Poster Girl
TTITLE14=Lazy Bones (Live)
TTITLE15=Nine To Five (Live)
EXTD=contains 3 bonus tracks that are not on the basic version of this cd
EXTT0=
EXTT1=
EXTT2=
EXTT3=
EXTT4=
EXTT5=
EXTT6=
EXTT7=
EXTT8=
EXTT9=
EXTT10=
EXTT11=
EXTT12=
EXTT13=
EXTT14=
EXTT15=
PLAYORDER=
